<svg version="1.0" xmlns="http://www.w3.org/2000/svg" width="408" height="258.667" viewBox="0 0 306 194" fill="#A33B3B">
  <path
    d="M104.5 6.4c-29.3 4.9-45.1 23.9-43.3 52.1.9 13.5 7 21.7 18.9 25.5 11.4 3.7 22 1.9 33.8-5.8 8.5-5.6 14.3-15.4 12.7-21.5-1.4-5.7-6-4.1-10.4 3.6C111.3 68.9 104 73 93.5 73c-7.9 0-13.4-2.1-16.6-6.3-2.1-2.8-2.4-4.3-2.4-11.7 0-7.4.4-9.3 3.1-15.1 10.3-21.6 35.6-30 61.8-20.6 6.9 2.5 13.3 6.8 14.4 9.5.7 2-2.4 23.8-4.5 31.2-11.8 42.1-30.1 75.5-53.2 97.1-15.3 14.5-27.1 20-42.7 20.1-10.9 0-16.1-1.9-21.6-8-4.1-4.5-5.8-9.3-5.8-16.5 0-11.7 9.2-20.9 23.8-23.7 6.1-1.2 6.6-1.2 17.7 2.5 9.4 3.1 12.2 3.6 16 3.1 5.7-.9 5.7-2.3.1-7.3-12.4-10.9-43.7-12.5-59.6-3-5.7 3.4-12.7 10.3-15 14.7-2.5 4.9-3.4 14.9-2.1 22.9 2.5 15.3 11.5 24 27.6 27 8.6 1.6 27 1.4 34-.4 16.3-4.2 32.6-16 47.1-34.1 21.2-26.6 38.6-63.7 45.9-97.9 1-4.4 1.9-8.6 2.1-9.3.7-2.7 2-.9 3.9 5.5 3 10.2 2.8 43.2-.3 58.8-3.3 16.2-10.4 44.1-17.7 69.1-2.3 7.9-2.2 8.6 2.3 7.9 11.1-2 9.7-.4 20.5-22.2 36.9-74 69.2-123 93.2-141 7.6-5.7 15.5-9.8 15.5-8 0 .7-3.6 6.3-8 12.4-22.6 32-37.9 58.6-48.3 83.9-8.5 20.8-11.7 34.1-11.7 48.9 0 10.3 1.3 14.7 5.7 19.6 5.4 5.9 13.7 7.4 24.3 4.3 6.6-1.9 11.2-4.8 17.3-10.7 8.5-8.3 10.8-14.6 6.7-18.7-3.1-3.1-4.9-2.5-10.9 4.1-8.8 9.5-14.7 11.6-17.1 5.9-1.6-4-.8-16.1 1.8-25.5 4.4-16.2 22.5-54.6 40.2-85.5 13.5-23.5 21.2-39.5 21.4-43.9.1-6.7-1.3-7.4-13.4-6.9-12 .5-19.1 2.9-28.7 9.4-17.4 12-32.2 30.5-54.7 68.6-4.8 8.2-9.2 14.8-9.8 14.8-.6 0-.8-.6-.5-1.4.3-.8 1.1-6 1.7-11.6 2.7-24.6-4.3-46.4-19.5-60.9-8.2-7.8-19.4-13.9-30.5-16.6-8.9-2.2-32.3-2.8-42.5-1.1z" />
</svg>