<svg aria-hidden="true" style="position: absolute; width: 0; height: 0; overflow: hidden;" version="1.1"
    xmlns="http://www.w3.org/2000/svg" xmlns:xlink="http://www.w3.org/1999/xlink">
    <defs>
        <symbol id="icon-logo" viewBox="0 0 838 169">
            <path
                d="M97.5 3.7c-21.1 1.8-35.2 9.4-41.8 22.6-3.7 7.2-5.4 20.1-3.8 28 4.3 20.1 28.6 25.8 47.8 11.1 3.8-2.8 9.3-11.8 9.3-15 0-5.4-5.9-5.4-8.6-.1C96.1 58.8 89.2 63 79.5 63c-12.9 0-18.3-5.6-17.2-17.8C64.1 25.9 80 12 100.2 12c11.7 0 24.3 4 31.1 9.8 2.1 1.9 2.2 6 .1 16.6-5.2 27-12.7 46.7-26.3 69.1-17.8 29.1-37.5 45.3-57.6 47.2-17.8 1.6-28.8-8.4-27.3-24.7.7-6.6 5.4-12.5 12.8-15.8 8.4-3.9 13.8-3.9 24.9-.2 14.1 4.8 20.5 2.8 12.5-3.8-5.9-4.9-13.2-6.7-26.9-6.7-19 0-30 4.7-36.8 15.7-2.6 4.2-2.9 5.6-3 13.5-.1 15.6 3.8 23 14.9 28.4 6.1 3.1 7.4 3.3 19.7 3.7 10.2.3 14.7.1 19.7-1.2 21.6-5.6 44-28.1 61-61.2 8.8-17 17.1-39.7 20-54.4 1.9-9.6 2-10 2.9-10 3.7 0 6.4 30.7 4.2 48.5-1.3 11.1-5.1 27.5-10.6 47-4.5 15.7-7.9 29.5-7.4 30s10.7-.9 11.3-1.6c.1-.2 5.9-11.4 12.8-24.9 11.3-21.9 19.7-37.3 27.7-51 1.5-2.5 3.6-6 4.6-7.9 4.4-7.3 19.1-29 24.3-35.6 6.9-8.7 16.3-18 23.3-23.2 5.7-4.2 11.6-7 12.6-6 .3.3-2.6 5-6.4 10.4-15.9 22.5-25.2 37.6-34.7 56.3-10.6 20.7-15.2 33.6-18.2 51-2 12-1.4 18.7 2.3 24.5 3.7 5.9 8.2 7.9 16.5 7.3 8.5-.5 14.5-3.6 22.4-11.5 5.7-5.8 6.4-7 6.4-10.4 0-3.3-.5-4.1-2.5-5.1-2.4-1.1-3-.7-9.2 5.5-5.5 5.6-7 6.7-9.9 6.7-4.8 0-5.8-2.5-5.1-12.4.5-7.1 4.6-23.3 6.6-26.1.4-.6 1.6-3.3 2.6-6 1.6-4.6 16-33.4 23.3-46.5 1.6-3 5.3-9.8 8.2-15 8.3-15.1 16-31.1 16-33.4 0-3.7-1.6-4.9-7.3-5.4-17.2-1.4-36 9.5-52.1 30.2-7.4 9.5-18.8 26.8-27.2 41.3-6.6 11.4-8.7 13-7.2 5.5 1.4-7.6 1.1-25-.6-32.4-2-8.6-7.2-18.9-12.5-25-8.6-9.7-23.4-16.9-38.6-18.7-8.8-1.1-11.7-1.1-20-.4zM552.5 5.3c-9.7 3.2-17.6 9.2-28.7 21.7-9.5 10.6-18.8 25-27.3 42.5-12.9 26.5-17.4 44-16.2 63 .7 11.2 2.7 17.1 7.8 22.9 5.4 6.1 10.8 8.1 20.2 7.3 20.3-1.7 40.4-20.3 50-46.1 2.7-7.2 3-9.4 3.1-20.1.1-11.2-.1-12.4-2.7-18-1.6-3.3-3.9-7.1-5.2-8.5-3.7-4-3.4-4.9 2.6-7.3 13.5-5.6 26.2-16 30.1-24.6 3.8-8.4 3.3-22.4-1.1-27.7-3.5-4.3-8-5.8-18.6-6.1-6.4-.2-11.5.2-14 1zm14.7 11.4c6.1 5.5-4.9 29.4-17.1 37.2-2.6 1.7-7 3.8-9.7 4.6-6.3 1.9-17.4 3.1-17.4 1.8 0-2.9 13.9-24.6 22-34.2 8.1-9.7 17.5-13.7 22.2-9.4zm-43.3 53.4c16.8 3.6 19.8 33.9 6.1 61.4-6.2 12.4-16 21.5-21.6 20.1-6.9-1.8-8.8-19.9-4.5-42.1 1.2-5.8 6.5-21.7 11-32.5 1.7-4.1 3.1-7.6 3.1-7.8 0-.3.6-.3 5.9.9zM797.4 5.8c-8 2.8-14.6 7.6-24.1 17.6-13.6 14.2-25.9 33.9-37.1 59.6-7.4 17-10.9 34.2-9.9 49.5.8 11.1 2 15 6.6 21.2 5.4 7.1 10.7 9.5 20.2 9 21.5-1.1 42.8-20.8 52-48.2 1.9-5.7 2.4-9.1 2.4-18.5 0-13.2-.9-16.7-6.6-24.2-4.1-5.5-4.8-7.8-2.5-7.8.8 0 5.5-2.1 10.5-4.6 19.9-10.2 30.1-26.7 25.7-41.6-1.9-6.7-6.2-11.2-12-12.7-6.7-1.7-19.3-1.3-25.2.7zM813.5 17c5.6 6.2-5.2 29.1-17.4 36.9-2.8 1.8-7.1 3.9-9.7 4.7-5.4 1.6-17.4 3-17.4 2 0-2.4 9.1-17.2 17.3-28.4 6.4-8.5 11.1-13.1 16.2-16 3.3-1.9 9-1.4 11 .8zM770 70.1c5.6 1.3 9.2 4.6 12.1 11.3 2 4.3 2.3 6.8 2.3 16.1 0 9.2-.4 12.5-2.8 20-4.9 15.9-12.9 28.3-21.1 32.6-5 2.7-6.4 2.3-9.9-2.5-1.7-2.2-2.1-4.6-2.5-13.8-.5-16.8 1.7-28.1 10.1-49.8 4.1-10.7 6-15 6.7-15 .3 0 2.6.5 5.1 1.1zM627.5 61.1c-13.8 3.1-25 9.3-34.1 19-14.2 15.2-24.2 37.1-25.9 56.6-1.2 13.5 2 20.1 11.7 24.3 9.9 4.2 24.2 3.4 35.1-2.1 4.9-2.5 14-9.4 17.9-13.6 3.4-3.6 4.6-8.4 2.5-10.2-2-1.6-3.6-.7-10.4 5.6-6.5 6-18.5 12.3-23.3 12.3-7.4 0-10.7-5.7-9.7-16.6 1.8-18.8 7.6-24 21.1-18.9 8.2 3.1 9.8 3.1 16.3.1 3.6-1.7 6.2-3.9 8.7-7.3 1.9-2.6 3.4-4.8 3.3-4.9-.1-.1-2.9.3-6.3.8-5.3.9-7 .7-13.5-1.3-4.1-1.2-9.8-2.3-12.7-2.3-3.2-.1-5.2-.5-5.2-1.3 0-2.2 8.2-15.3 12.8-20.4 2.5-2.9 6.1-5.8 7.9-6.5 4-1.7 12.3-1.9 12.3-.3 0 .7-1.8 3.1-4 5.5s-4 5.2-4 6.3c0 4.9 9.3 8.5 16.3 6.2 11.9-3.9 14.5-20.9 4.3-27.9-6-4.1-12.5-5-21.1-3.1zm-8.4 45.2c2 .8 5.4 1.8 7.7 2.2 2.9.5 4.2 1.2 4.6 2.8 1.5 5.6-9.2 8.3-19.1 4.9-3.4-1.2-7.3-2.2-8.7-2.2-1.6 0-2.6-.6-2.6-1.4 0-.8-.6-1.6-1.2-1.9-2.1-.8 3.5-5.8 7.3-6.6 3.6-.8 6.1-.3 12 2.2z"
                fill="#D52A20" />
            <path
                d="M606.3 108.6c1.2 1.3 12.2 5.4 14.3 5.4 4.3 0 3.2-1.5-2.8-3.7-5.8-2.1-13-3.1-11.5-1.7zM706 61.4c-8.3 2-13.7 4.1-18.3 7.2-21.3 14.3-36.6 39.5-39.9 65.9-1 7.8-.9 9.8.6 14.8 1.4 4.7 2.4 6.3 5.8 8.7 10.8 7.8 27.1 7.7 42-.2 8.1-4.3 19.8-15.5 19.8-18.9 0-2.4-1.6-4.9-3.1-4.9-.4 0-3.6 2.5-7.1 5.5-12.1 10.7-24 15.6-29.9 12.5-2.6-1.4-4.9-7.3-4.9-12.4 0-6.7 3.8-19.8 6.3-21.8 3.8-2.9 7.9-3 15.1-.3 8.2 3.1 9.8 3.1 16.1.2 4.3-2.1 13.6-11.1 12.4-12.1-.2-.2-3.1.1-6.4.7-5.2.9-6.9.7-13.5-1.4-4.1-1.2-9.9-2.3-12.8-2.3-2.8-.1-5.2-.5-5.2-1 0-1.9 6.5-12.8 10.8-18.2 6.7-8.1 9.1-9.7 16.2-10.2 7.2-.5 7.6.5 2.6 5.8-6.7 6.9-5.1 12.2 4.1 13.6 10 1.5 17.1-4.2 18.1-14.5C736 64.9 723 57.3 706 61.4zm-6.9 44.9c2 .8 5.4 1.8 7.7 2.2 4.9.8 6.4 4 3.2 6.7-3.8 3.1-10.7 3.4-18.5.7-3.8-1.3-7.8-2.2-8.7-2.1-1.1.2-1.8-.3-1.8-1.2 0-.8-.6-1.6-1.2-1.9-2.1-.8 3.5-5.8 7.3-6.6 3.6-.8 6.1-.3 12 2.2z"
                fill="#D52A20" />
            <path
                d="M686.5 109c.3.5 1.3 1 2.1 1s3.2.9 5.4 2c3.9 2 8.1 2.6 9.4 1.3.3-.4-2.2-1.7-5.6-3-6.6-2.4-12.4-3-11.3-1.3zM290.5 63.4C276.3 68.1 264 78.2 254.6 93c-5.5 8.5-11 21-12.6 28.5-.7 3.3-1.6 7.6-2.1 9.5-.5 1.9-.9 7.3-.9 11.9 0 15.3 5.1 21 18.8 21.1 6.9 0 10.6-1.5 20.4-8.1 3.2-2.2 6-3.9 6.2-3.9.2 0 .9 1.5 1.6 3.4 2.2 6.8 8.6 9.3 19.1 7.7 7.7-1.3 14.1-4.5 19.2-9.8 5.3-5.5 6-6.8 4.7-9.3-1.6-3-4.4-2.4-9.6 2.1-6.6 5.7-9.1 7.2-11 6.5-1.2-.5-1.5-1.5-1.1-3.9.3-1.7 7.9-20.5 17-41.7 9-21.2 16.7-39.5 17.1-40.8.7-2.2.7-2.2-10.3-2.2-10.1 0-11 .2-11.6 2-.6 2-3.5 2.8-3.5 1 0-.6-1.5-1.9-3.2-3-3.9-2.4-15.9-2.7-22.3-.6zm15.7 10.7c1.3.6 3.1 2.1 4.1 3.5 1.8 2.4 1.7 2.6-1.7 11.2-1.9 4.8-5.1 12.5-7.1 17.2-2 4.7-4.2 10.1-5 12-5.5 14.4-10.6 21.4-22.2 30.1-5.9 4.4-10 5-12.8 1.9-4.8-5.3 3.1-37.2 13.6-55.3 8.4-14.2 16.8-21.7 24.5-21.7 2.4 0 5.3.5 6.6 1.1zM365.1 64c-7.2 3.3-18.1 14.1-18.1 18 0 4.9 5.5 5.8 8.8 1.5 3.3-4.1 11.3-10.5 13.3-10.5 1.5 0 1.9.7 1.9 3.3 0 4.1-.9 7.1-5.5 17.7-2 4.7-4.9 11.6-6.5 15.5-1.6 3.8-4.5 10.8-6.5 15.5-2 4.7-4.3 10.1-5 12-.7 1.9-3.4 8.4-5.9 14.5-2.5 6-4.6 11.1-4.6 11.2 0 .2 5.2.3 11.5.3 10.1 0 11.6-.2 12.2-1.7.5-1.6 5.9-14.5 22.4-54.3 9.5-22.7 10.3-24.2 14.5-27.6 7.4-6.1 15.4-8.2 17.4-4.5 2.3 4.3.7 10.5-8.1 31.1-5.3 12.6-10.9 26-15.4 37-2.4 5.8-5.3 12.7-6.4 15.3l-2.1 4.8 11.7-.3 11.8-.3 5.1-12.5c2.9-6.9 5.9-14.1 6.7-16 2.2-4.9 14.8-35 15.4-36.9.3-.9 1.4-3.4 2.4-5.6 1-2.3 2.1-5.3 2.4-6.8 1.3-4.9 11.3-11.7 17.4-11.7 2.5 0 3.4.6 4.2 2.7 2 5.1-1.9 17-15.5 48.3-6.1 13.9-7.9 19.7-8 25.2-.1 4.7.4 6.1 2.4 8.3 3.9 4.2 7.4 5.5 14.2 5.5 7.5 0 11.9-1.9 20-8.4 5.6-4.5 7.6-8 6.4-11.1-1.2-3.2-3.6-2.7-8.9 1.7-7.3 6.2-10.4 8.1-12.3 7.4-2.7-1-1.6-4.6 8.7-27.3 1-2.4 1.9-4.5 1.9-4.8 0-.3 2.6-6.8 5.9-14.3 3.2-7.5 6.3-15.2 7-17.1 2.8-8.6 0-19.9-6.1-24.2-2.7-1.9-4.8-2.5-11.3-2.7-9.1-.4-16.1 1.7-22.6 6.9-2 1.6-4 2.9-4.3 2.9-.4 0-2.1-1.6-3.9-3.6-4.1-4.8-8.2-6.4-15.9-6.4-8.1 0-12.5 1.3-18.5 5.3-2.6 1.8-5.3 3.7-6 4-.8.5-1.8-.4-2.8-2.3-.9-1.7-3-4-4.8-5-4.4-2.7-14.6-2.7-20.6 0z"
                fill="#D52A20" />
        </symbol>
        <symbol id="icon-close" viewBox="0 0 32 32">
            <path
                d="m26.667 7.303-1.97-1.97-7.808 7.808-7.808-7.808-1.97 1.97 7.808 7.808-7.808 7.808 1.97 1.97 7.808-7.808 7.808 7.808 1.97-1.97-7.808-7.808 7.808-7.808z" />
        </symbol>
        <symbol id="icon-hamburger" viewBox="0 0 40 36">
            <path d="M6.62476 8.96216H33.2914" stroke="#D52A20" stroke-width="4" stroke-linecap="round"
                stroke-linejoin="round" />
            <path d="M6.62476 17.9622H33.2914" stroke="#D52A20" stroke-width="4" stroke-linecap="round"
                stroke-linejoin="round" />
            <path d="M6.62476 26.9622H33.2914" stroke="#D52A20" stroke-width="4" stroke-linecap="round"
                stroke-linejoin="round" />
        </symbol>
        <symbol id="icon-right" viewBox="0 0 10 18">
            <path d="M1 1L9 9L1 17" stroke="white" fill="none" stroke-width="2" stroke-linecap="round"
                stroke-linejoin="round" />
        </symbol>
        <symbol id="icon-left" viewBox="0 0 10 18">
            <path d="M9 1L1 9L9 17" stroke="white" fill="none" stroke-width="2" stroke-linecap="round"
                stroke-linejoin="round" />
        </symbol>
    </defs>
</svg>